<svg enable-background="new 0 0 512 512" height="512" viewBox="0 0 512 512" width="512" xmlns="http://www.w3.org/2000/svg"><path d="m173.295 213.105 19.185 60.086h-62.623l18.823-60.086c4.344-14.48 7.964-31.493 11.584-45.611h.723c3.621 14.118 7.603 30.769 12.308 45.611zm338.205-127.438v340.667c0 46.842-38.325 85.167-85.167 85.167h-340.666c-46.842-.001-85.167-38.326-85.167-85.168v-340.666c0-46.842 38.325-85.167 85.167-85.167h340.667c46.841 0 85.166 38.325 85.166 85.167zm-241.553 290.331-79.276-243.978h-56.833l-78.188 243.978h45.973l20.994-69.14h77.465l22.082 69.14zm186.403 0c-.724-14.479-1.447-31.854-1.447-52.851v-123.437h-44.521v106.425c0 5.065-1.089 9.773-2.536 13.757-4.708 11.22-16.289 23.891-34.025 23.891-23.529 0-32.943-18.825-32.943-48.144v-95.929h-44.521v103.531c0 57.554 29.317 76.741 61.538 76.741 31.488 0 48.866-18.103 56.469-30.773h.724l2.17 26.789z"/></svg>